inDegrees=no
num_controls=7
num_derivatives=13
num_iterations=17
num_multipliers=7
num_parameters=0
num_slacks=7
num_states=26
objective=0.512723
objective_accelerations=0.000000
objective_balance=0.005669
objective_effort=0.021887
objective_height=0.476968
objective_ligament=0.008200
solver_duration=209.276372
status=Solve_Succeeded
success=true
DataType=double
version=3
OpenSimVersion=4.5
endheader
time	/jointset/ground_pelvis/pelvis_tilt/value	/jointset/ground_pelvis/pelvis_tx/value	/jointset/ground_pelvis/pelvis_ty/value	/jointset/hip_r/hip_flexion_r/value	/jointset/hip_r/hip_adduction_r/value	/jointset/hip_r/hip_rotation_r/value	/jointset/back/lumbar_extension/value	/jointset/patellofemoral_r/patellar_flexion_r/value	/jointset/knee_r/knee_flexion_r/value	/jointset/knee_r/knee_adduction_r/value	/jointset/knee_r/knee_rotation_r/value	/jointset/ankle_r/ankle_angle_r/value	/jointset/subtalar_r/subtalar_angle_r/value	/jointset/ground_pelvis/pelvis_tilt/speed	/jointset/ground_pelvis/pelvis_tx/speed	/jointset/ground_pelvis/pelvis_ty/speed	/jointset/hip_r/hip_flexion_r/speed	/jointset/hip_r/hip_adduction_r/speed	/jointset/hip_r/hip_rotation_r/speed	/jointset/back/lumbar_extension/speed	/jointset/patellofemoral_r/patellar_flexion_r/speed	/jointset/knee_r/knee_flexion_r/speed	/jointset/knee_r/knee_adduction_r/speed	/jointset/knee_r/knee_rotation_r/speed	/jointset/ankle_r/ankle_angle_r/speed	/jointset/subtalar_r/subtalar_angle_r/speed	/forceset/tau_hip_flexion_r	/forceset/tau_hip_adduction_r	/forceset/tau_hip_rotation_r	/forceset/tau_knee_flexion_r	/forceset/tau_ankle_angle_r	/forceset/tau_subtalar_angle_r	/forceset/tau_lumbar_extension	lambda_cid13_p0	lambda_cid14_p0	lambda_cid14_p1	lambda_cid14_p2	lambda_cid14_p3	lambda_cid14_p4	lambda_cid14_p5	/jointset/ground_pelvis/pelvis_tilt/accel	/jointset/ground_pelvis/pelvis_tx/accel	/jointset/ground_pelvis/pelvis_ty/accel	/jointset/hip_r/hip_flexion_r/accel	/jointset/hip_r/hip_adduction_r/accel	/jointset/hip_r/hip_rotation_r/accel	/jointset/back/lumbar_extension/accel	/jointset/patellofemoral_r/patellar_flexion_r/accel	/jointset/knee_r/knee_flexion_r/accel	/jointset/knee_r/knee_adduction_r/accel	/jointset/knee_r/knee_rotation_r/accel	/jointset/ankle_r/ankle_angle_r/accel	/jointset/subtalar_r/subtalar_angle_r/accel	gamma_cid13_p0	gamma_cid14_p0	gamma_cid14_p1	gamma_cid14_p2	gamma_cid14_p3	gamma_cid14_p4	gamma_cid14_p5
1.5	-0.04219668117455979	0.07994516819576673	0.9347226483760364	0.3221162825863089	-0.1463556952361964	-0.09349813787492049	-0.1429595189614303	0.1947719077089511	0.1947719077089498	-0.02241855051500163	-0.001492466978088617	0.09054304049605209	0.1051825614656177	0.05606400786244017	-0.006112049668685217	0.006743526134415577	-0.06829219408847081	0.005352637130450109	-0.02119492022300454	0.2431796473071181	-0.02850593718662897	-0.02850593718662851	-0.009094737547073153	0.01528390983453091	-0.01559639775831786	0.001382014808082361	0.02462498579041519	0.03401221094179688	0.02021052978184152	-0.2144940661288725	0.1364792114966882	-0.06103938630725969	0.04979704166917991	-38.54866333161141	-4.058495372382141	-30.72845301129252	9.366400019159189	5.481354657037223	-696.6381788961105	15.86913662295749	0.3627247143525998	0.09778528289696663	0.06526347187367072	-0.7138765853054382	-0.04898164737797305	0.02754419022339945	0.4980163383729074	-0.3520911503400209	-0.3520911503400209	0.1443511343365799	-0.05501645233589132	-0.01997276769991198	-0.0628931705112096	4.498894278279297e-10	1.00864820705631e-09	3.035927736756656e-09	8.125920630882306e-10	-1.013756828574129e-09	-4.103305331709409e-09	1.195765953744214e-09
1.51	-0.041618030242496	0.07988902870624717	0.9347933774453635	0.3213974224069026	-0.1463045856135833	-0.09370870439320704	-0.1405026600069573	0.1944687625421966	0.1944687625421942	-0.02250228467708235	-0.00134246692958517	0.09038595520884318	0.105193234420653	0.05968723580154582	-0.005104293405505962	0.007411093216228619	-0.07556240041840602	0.004875217055208483	-0.0209302732809514	0.2481768113291605	-0.03220577184848967	-0.03220577184848921	-0.00765484887224727	0.01471373278574939	-0.01584307475856898	0.0007523027217669892	0.02621859720388858	0.03372107266152815	0.02024633140870033	-0.2164140177282132	0.138887112817902	-0.06114963671419398	0.04844606615351266	-38.54428707440581	-3.305796877118194	-30.71498519528696	9.444715144045349	5.19132652935294	-696.738552817607	15.94389247807416	0.3652805299962459	0.1040037984833926	0.06882307248141091	-0.745976418436981	-0.04623218581948914	0.0241414432377033	0.4982665953134141	-0.3913310561191167	-0.3913310561190952	0.1433952702772184	-0.05837338247416277	-0.03037734371060666	-0.06305060475987635	4.137782595102076e-10	9.036151980423562e-10	3.433001346135129e-09	7.806162420083761e-10	-1.08507668910098e-09	-4.948079044731813e-09	1.42046045492351e-09
1.52	-0.0410025152917861	0.07984331337945053	0.9348710461347379	0.3206033834118717	-0.1462580721914066	-0.09391698114265348	-0.1379962893800253	0.194126138742421	0.1941261387424196	-0.02257170244520661	-0.00119823966182659	0.09022573071612808	0.1051976021794114	0.06343681159292733	-0.004027217124108359	0.008131450143887496	-0.08332795721231392	0.004433397051103934	-0.02073696645724175	0.2530819817989443	-0.03640166379075283	-0.03640166379075235	-0.006231458748546114	0.0141293536839686	-0.01622423885973498	0.0001209755527264745	0.02781220861736416	0.03342993438124865	0.02028213303552591	-0.2183339693275571	0.1412950141391141	-0.06125988712114019	0.04709509063784806	-38.53908476177131	-2.556046373203726	-30.70211796638781	9.523222435777354	4.901582371003911	-696.8909001716221	16.02446117776669	0.3879942848076497	0.1116492865407648	0.075821441042843	-0.8129466781000453	-0.04186163315059252	0.01327616655471992	0.4796176279211614	-0.4513026064206361	-0.4513026064206362	0.1410514241117213	-0.05785686293576402	-0.0468701878828011	-0.06321618705625323	3.839705951047894e-10	7.929597264224301e-10	3.81540169443693e-09	7.663163030277678e-10	-1.153058862539118e-09	-5.943053925639437e-09	1.64768851668681e-09
1.53	-0.04034891871960862	0.07980871179774245	0.934956174813005	0.3197292913566315	-0.1462157555147962	-0.09412378602558624	-0.1354413243850364	0.1937391104057485	0.1937391104057465	-0.02262707034523953	-0.001059842301049362	0.09006103789574622	0.1051957048847364	0.06730566994845323	-0.002881623920705248	0.008903517290307909	-0.09157704641925908	0.00404034602196566	-0.02064391141989259	0.2578887702225748	-0.04109095598208571	-0.04109095598208524	-0.004854086472479037	0.01355279019710241	-0.01673800161410299	-0.0004958840463685909	0.02955839787668054	0.03311324245441513	0.02032433317883523	-0.2203809220225634	0.143875735827435	-0.06138069279569852	0.04562090783929398	-38.53295208400176	-1.747910906934992	-30.68994789544792	9.609077875266012	4.58326599958602	-696.9812164164284	16.10418508180382	0.3898067641455855	0.1177353817572762	0.07928257543379809	-0.8438789564275007	-0.03646501602057322	0.004334930346206386	0.4778724030868785	-0.4907854612741938	-0.490785461274173	0.1342861020020265	-0.05715533632152622	-0.05718074064991775	-0.06023751213875948	3.608604036061943e-10	6.763303882836585e-10	4.18221170284477e-09	7.707969887776085e-10	-1.217494743445497e-09	-7.097617547425104e-09	1.877608486570614e-09
1.54	-0.03965593853323799	0.07978591035697193	0.9350493008075345	0.3187701106264288	-0.1461770569841634	-0.09433025740652951	-0.1328389589151107	0.1933025805600049	0.1933025805600033	-0.02266902332802047	-0.0009271304240840904	0.0898904971635346	0.10518777566091	0.07131353443281213	-0.001667188936596382	0.009730913396369773	-0.1003456922036302	0.003709767863850609	-0.02067026606169687	0.2625620767863219	-0.04630196560480334	-0.04630196560480287	-0.00354847529048872	0.01299225691985281	-0.0173938212259147	-0.001085410277566436	0.0313045871359942	0.03279655052756928	0.02036653332211184	-0.2224278747175775	0.1464564575157522	-0.06150149847027122	0.0441467250407406	-38.52578637984529	-0.9435135262755004	-30.67837810858634	9.694967067664189	4.267000500049294	-697.135518626903	16.19087444922641	0.4157955105741151	0.1254176426820565	0.08688723297113912	-0.9168579935853164	-0.02936705894598067	-0.0106057692759504	0.4529212559444876	-0.5556460926977096	-0.5556460926977096	0.1266992052964502	-0.05465082101247402	-0.07528155937144118	-0.05774951347681555	3.531278148914972e-10	5.638806942920609e-10	4.499711261092399e-09	8.191470917041121e-10	-1.275458514905915e-09	-8.43844806143345e-09	2.090924832789107e-09
1.55	-0.0389222264970475	0.07977559454452235	0.9351509693008416	0.3177207272824382	-0.1461412951614602	-0.09453772713876399	-0.1301905290234391	0.1928113768543887	0.1928113768543871	-0.02269841154323077	-0.0007998317882718302	0.08971271215601634	0.1051741624726603	0.07545500506746962	-0.0003845004669770465	0.01061245517361976	-0.109622152973688	0.003458817551573338	-0.02085382551063676	0.2670938427630039	-0.05202946194040759	-0.05202946194040712	-0.002353285730203565	0.01247674756765172	-0.01818747458100002	-0.001626092183340076	0.03320593675285692	0.03245600257233446	0.02041323767837714	-0.2245942125111473	0.1492147130498601	-0.06163385955029934	0.04254793879089641	-38.51747675324396	-0.07819180000520108	-30.66744319609465	9.788135066116407	3.916789404462178	-697.2128276236592	16.27525036120022	0.4172427633623855	0.1314151416768893	0.09023596480034131	-0.9467166576554822	-0.02052512550244734	-0.02675283133971904	0.4487954507180933	-0.5949044413510737	-0.5949044413510526	0.1123119878037664	-0.04860937302860793	-0.0850513601742568	-0.05055637041854164	3.631128989495511e-10	4.562466772526416e-10	4.760396605025006e-09	9.180423926819852e-10	-1.325965290700335e-09	-9.993890429524433e-09	2.28511091695844e-09
1.56	-0.03814631576982629	0.07977844975528404	0.9352617428748605	0.3165758440229529	-0.1461075560635484	-0.09474793682520315	-0.127497683235563	0.1922601775779434	0.1922601775779417	-0.02271657123159585	-0.0006774099221135426	0.08952626178762907	0.1051554766970949	0.07975327264017591	0.0009670157056597003	0.01155192953872206	-0.1194456753013208	0.00330522291397204	-0.02121825690504652	0.2714452560272088	-0.05830107977038507	-0.05830107977038458	-0.001302769913539656	0.01201690298725916	-0.01912689339997148	-0.002099927740747212	0.03510728636971211	0.03211545461708618	0.02045994203461036	-0.2267605503047292	0.1519729685839625	-0.06176622063034363	0.04094915254105097	-38.50791519982482	0.782551638834558	-30.65707357687646	9.881123229323164	3.570581994986955	-697.3666090204863	16.36782545414047	0.4471548981837339	0.1391831832856913	0.09847375054160652	-1.026270305100403	-0.009895924010815169	-0.04678015836990572	0.4168507134490699	-0.6644703915724774	-0.6644703915724774	0.09776445657227424	-0.04351786665079676	-0.104434652148552	-0.04438024380351162	3.990267087318845e-10	3.64417533871033e-10	4.921602069799934e-09	1.083269647776623e-09	-1.365326301169652e-09	-1.177262193894408e-08	2.442435386851703e-09
1.57	-0.03732667985225653	0.07979516204992536	0.9353821914209041	0.3153300797917439	-0.1460748007739425	-0.09496285448246897	-0.1247622255854225	0.1916436003945972	0.191643600394596	-0.02272510219795446	-0.0005591775118976911	0.08932972181773972	0.1051324745182926	0.08420350259561475	0.00238699436481694	0.01254782280467608	-0.12980293081314	0.00326875115953735	-0.02180673329493618	0.2756079582912478	-0.06510784213963064	-0.06510784213963015	-0.0004416011558303261	0.01164620806906196	-0.0202052904516344	-0.002481542901963615	0.03716573948393387	0.0317521384939472	0.02050900982912394	-0.2290374412094863	0.154913198642481	-0.06191117398108184	0.03922516897119429	-38.49698388391126	1.706751155954452	-30.64723615571569	9.981248530565113	3.184648702434239	-697.4271578262001	16.45640779873043	0.4483959156023538	0.1451375979443814	0.1016505817875514	-1.054817277936301	0.002915457540685483	-0.07110013378223715	0.410232626372888	-0.7028020473768135	-0.7028020473767953	0.07456731726144228	-0.03135084423683421	-0.113170698182841	-0.03220642836176517	4.673514256695671e-10	2.923444825616875e-10	4.958457685627763e-09	1.331411845517217e-09	-1.390755104982593e-09	-1.383046487502456e-08	2.553682838899879e-09
1.58	-0.03646165386086236	0.07982642060930105	0.9355128995930396	0.3139778701846674	-0.1460417225501825	-0.09518490065451825	-0.1219862903839431	0.1909561510100017	0.1909561510099998	-0.02272616663039754	-0.0004441531588208174	0.08912167218403368	0.1051062253326623	0.08883128740620921	0.003876268652534613	0.01360385475711635	-0.1407347504735007	0.00336980975315275	-0.02264395986417724	0.2795407662949513	-0.07247552001992653	-0.07247552001992603	0.000190536877535892	0.01137529155755447	-0.02142882616360343	-0.002749329106419504	0.03922419259814314	0.03138882237079371	0.02055807762360894	-0.2313143321142594	0.1578534287009924	-0.06205612733183812	0.03750118540133431	-38.48456895190341	2.625485842301463	-30.63789068132011	10.08092121216604	2.804835057277191	-697.5770180687148	16.55450426488788	0.4826658692146938	0.153042308997942	0.1105014878388627	-1.141183134808784	0.01761014559917699	-0.09653019424016809	0.3708718613819719	-0.7766534937826644	-0.7766534937826644	0.05195831170371619	-0.02356218531288961	-0.1334623842096425	-0.02161445245139564	5.687679656491034e-10	2.405463408282162e-10	4.845474504731634e-09	1.67082909447831e-09	-1.398758078209619e-09	-1.614446698972739e-08	2.602771968402209e-09
